<svg width="1920" height="895" viewBox="0 0 1920 895" fill="none" xmlns="http://www.w3.org/2000/svg">
    <g clip-path="url(#clip0)">
        <rect width="1920" height="895" fill="#120B2B"/>
        <g opacity="0.5" filter="url(#filter0_f)">
            <path opacity="0.5" d="M1803.52 55.8716H1760.7L1739.32 94.3393L1760.7 132.807H1803.52L1824.95 94.3393L1803.52 55.8716Z" fill="url(#paint0_linear)"/>
            <path opacity="0.5" d="M2017.96 -0.303223H1914.35L1862.49 92.8099L1914.35 185.923H2017.96L2069.77 92.8099L2017.96 -0.303223Z" fill="url(#paint1_linear)"/>
            <path opacity="0.8" d="M1379.09 -142.844H1227.68L1152 -6.78357L1227.68 129.276H1379.09L1454.83 -6.78357L1379.09 -142.844Z" fill="url(#paint2_linear)"/>
            <path opacity="0.5" d="M1075.15 -140.472H987.178L943.191 -61.4291L987.178 17.6143H1075.15L1119.14 -61.4291L1075.15 -140.472Z" fill="url(#paint3_linear)"/>
            <path opacity="0.5" d="M1996.17 275.822H1866.4L1801.54 392.437L1866.4 509H1996.17L2061.04 392.437L1996.17 275.822Z" fill="url(#paint4_linear)"/>
            <path opacity="0.5" d="M1749.58 7.9707H1612.59L1544.12 131.015L1612.59 254.112H1749.58L1818.04 131.015L1749.58 7.9707Z" fill="#25F0CC"/>
            <path opacity="0.5" d="M2088.57 -133.78H1945.43L1873.92 -5.20264L1945.43 123.375H2088.57L2160.08 -5.20264L2088.57 -133.78Z" fill="url(#paint5_linear)"/>
            <path opacity="0.5" d="M1900.43 -48.8354H1821.55L1782.08 22.0401L1821.55 92.9683H1900.43L1939.9 22.0401L1900.43 -48.8354Z" fill="url(#paint6_linear)"/>
            <path opacity="0.5" d="M1580.18 -93.31L1653.78 38.9559L1580.18 171.274H1432.88L1359.34 38.9559L1432.93 -93.31H1580.23H1580.18ZM1585.77 -103.217H1427.55L1348.41 39.0612L1427.55 181.339H1585.82L1664.95 39.0612L1585.82 -103.217H1585.77Z" fill="url(#paint7_linear)"/>
            <path opacity="0.5" d="M1980.12 85.0118L2038.59 190.034L1980.12 295.056H1863.3L1804.79 190.034L1863.25 85.0118H1980.07H1980.12ZM1984.44 77.1074H1858.83L1796 190.034L1858.83 302.908H1984.49L2047.22 190.034L1984.49 77.1074H1984.44Z" fill="url(#paint8_linear)"/>
            <path opacity="0.5" d="M1590.9 157.151L1624.98 218.436L1590.9 279.616H1522.63L1488.5 218.436L1522.58 157.151H1590.85H1590.9ZM1593.39 152.514H1520.09L1483.42 218.436L1520.09 284.359H1593.44L1630.11 218.436L1593.44 152.514H1593.39Z" fill="url(#paint9_linear)"/>
            <path opacity="0.5" d="M1427.55 -20.3269L1460.01 38.0598L1427.55 96.4464H1362.54L1330.08 38.0598L1362.54 -20.3269H1427.55ZM1429.99 -24.7007H1359.95L1325.05 38.0598L1359.95 100.82H1429.84L1464.73 38.0598L1429.84 -24.7007H1429.99Z" fill="url(#paint10_linear)"/>
            <path opacity="0.5" d="M1782.03 116.734L1856.04 249.685L1782.03 382.689H1634.02L1560.07 249.685L1634.02 116.734H1782.03ZM1787.57 106.775H1628.49L1548.94 249.685L1628.49 392.648H1787.57L1867.11 249.685L1787.57 106.775Z" fill="url(#paint11_linear)"/>
            <path opacity="0.5" d="M1606.39 -184.895L1668.46 -73.4438L1606.39 38.2182H1482.25L1420.18 -73.4438L1482.25 -185H1606.39V-184.895ZM1611.01 -193.326H1477.58L1410.84 -73.4438L1477.58 46.4914H1611.01L1677.75 -73.4438L1611.01 -193.221V-193.326Z" fill="url(#paint12_linear)"/>
            <path opacity="0.5" d="M1450.25 166.005C1450.25 167.391 1449.86 168.746 1449.12 169.898C1448.37 171.051 1447.32 171.949 1446.08 172.48C1444.85 173.01 1443.49 173.149 1442.18 172.878C1440.87 172.608 1439.67 171.941 1438.72 170.96C1437.78 169.98 1437.13 168.731 1436.87 167.372C1436.61 166.012 1436.75 164.603 1437.26 163.323C1437.77 162.042 1438.64 160.947 1439.75 160.177C1440.86 159.407 1442.16 158.996 1443.5 158.996C1445.29 158.996 1447.01 159.734 1448.28 161.049C1449.54 162.363 1450.25 164.146 1450.25 166.005Z" fill="url(#paint13_linear)"/>
            <path opacity="0.5" d="M1733.58 432.012C1733.58 434.847 1732.77 437.618 1731.25 439.975C1729.73 442.332 1727.57 444.169 1725.05 445.254C1722.52 446.339 1719.75 446.623 1717.07 446.07C1714.39 445.517 1711.92 444.152 1709.99 442.147C1708.06 440.143 1706.74 437.589 1706.21 434.808C1705.68 432.028 1705.95 429.146 1707 426.527C1708.04 423.908 1709.81 421.669 1712.09 420.094C1714.36 418.519 1717.03 417.679 1719.76 417.679C1723.42 417.679 1726.94 419.189 1729.53 421.877C1732.12 424.565 1733.58 428.211 1733.58 432.012Z" fill="url(#paint14_linear)"/>
            <path opacity="0.5" d="M1822.77 344.537C1822.77 345.026 1822.58 345.495 1822.25 345.841C1821.91 346.187 1821.46 346.382 1820.99 346.382C1820.76 346.389 1820.52 346.346 1820.3 346.256C1820.08 346.166 1819.88 346.03 1819.72 345.858C1819.55 345.685 1819.42 345.479 1819.33 345.252C1819.25 345.025 1819.21 344.781 1819.21 344.537C1819.21 344.048 1819.4 343.579 1819.73 343.233C1820.07 342.887 1820.52 342.693 1820.99 342.693C1821.46 342.693 1821.91 342.887 1822.25 343.233C1822.58 343.579 1822.77 344.048 1822.77 344.537Z" fill="url(#paint15_linear)"/>
            <path opacity="0.5" d="M1054.78 77.6341C1054.79 79.1185 1054.38 80.5724 1053.59 81.811C1052.8 83.0496 1051.67 84.0168 1050.35 84.5897C1049.03 85.1626 1047.58 85.3152 1046.18 85.0281C1044.77 84.7411 1043.48 84.0274 1042.47 82.9777C1041.46 81.9281 1040.77 80.59 1040.49 79.1336C1040.22 77.6771 1040.36 76.1683 1040.92 74.7989C1041.47 73.4294 1042.4 72.2613 1043.59 71.4431C1044.79 70.6249 1046.19 70.1936 1047.62 70.204C1049.52 70.204 1051.34 70.9868 1052.69 72.3803C1054.03 73.7737 1054.78 75.6635 1054.78 77.6341Z" fill="url(#paint16_linear)"/>
            <path opacity="0.5" d="M1822.26 202.26C1822.26 202.959 1821.99 203.629 1821.52 204.123C1821.04 204.617 1820.39 204.895 1819.72 204.895C1819.05 204.881 1818.41 204.599 1817.94 204.108C1817.47 203.617 1817.19 202.954 1817.18 202.26C1817.18 201.561 1817.45 200.891 1817.92 200.397C1818.4 199.903 1819.05 199.625 1819.72 199.625C1820.39 199.625 1821.04 199.903 1821.52 200.397C1821.99 200.891 1822.26 201.561 1822.26 202.26Z" fill="url(#paint17_linear)"/>
            <path opacity="0.5" d="M1589.17 103.613C1594.36 103.613 1598.57 99.248 1598.57 93.8639C1598.57 88.4799 1594.36 84.1152 1589.17 84.1152C1583.98 84.1152 1579.78 88.4799 1579.78 93.8639C1579.78 99.248 1583.98 103.613 1589.17 103.613Z" fill="url(#paint18_linear)"/>
        </g>
        <g opacity="0.4" filter="url(#filter1_f)">
            <path opacity="0.5" d="M336.918 896.912H377.013L397.036 859.168L377.013 821.423H336.918L316.846 859.168L336.918 896.912Z" fill="#E478F5"/>
            <path opacity="0.5" d="M136.107 952.029H233.135L281.696 860.667L233.135 769.306H136.107L87.5936 860.667L136.107 952.029Z" fill="#E478F5"/>
            <path opacity="0.7" d="M734.347 1091.89H876.13L946.998 958.388L876.13 824.887H734.347L663.431 958.388L734.347 1091.89Z" fill="#EF8BF8"/>
            <path opacity="0.5" d="M156.511 681.098H278.033L338.77 566.676L278.033 452.305H156.511L95.7735 566.676L156.511 681.098Z" fill="#F176F3"/>
            <path opacity="0.5" d="M-79.0638 815.013H10.7341L55.6331 730.476L10.7341 645.939H-79.0638L-123.963 730.476L-79.0638 815.013Z" fill="#E478F5"/>
            <path opacity="0.5" d="M387.428 943.911H515.704L579.818 823.181L515.704 702.399H387.428L323.314 823.181L387.428 943.911Z" fill="#EA70ED"/>
            <path opacity="0.5" d="M69.9961 1083H204.027L270.995 956.836L204.027 830.677H69.9961L3.02844 956.836L69.9961 1083Z" fill="#E478F5"/>
            <path opacity="0.5" d="M-110.029 975.038H22.9557L89.4005 849.861L22.9557 724.736H-110.029L-176.473 849.861L-110.029 975.038Z" fill="#E478F5"/>
            <path opacity="0.5" d="M246.167 999.648H320.031L356.987 930.106L320.031 860.512H246.167L209.211 930.106L246.167 999.648Z" fill="#EA70ED"/>
            <path opacity="0.5" d="M5.6917 752.087L-46.627 653.849L5.6917 555.61H110.043L162.362 653.849L110.043 752.087H5.6917ZM1.74393 759.481H113.944L170.02 653.849L113.944 548.113H1.74393L-54.3323 653.745L1.74393 759.378V759.481Z" fill="#E478F5"/>
            <path opacity="0.5" d="M-3.91605 924.366L-70.9792 798.001L-3.91605 671.687H130.305L197.416 798.001L130.305 924.366H-3.91605ZM-8.91005 933.828H135.347L207.499 798.001L135.347 662.173H-8.91005L-81.0625 798.001L-8.91005 933.828Z" fill="#E478F5"/>
            <path opacity="0.5" d="M546.049 1043.29L477.131 913.51L546.049 783.681H683.981L752.851 913.51L683.933 1043.29H546.002H546.049ZM540.818 1053.01H688.975L763.077 913.407L688.975 773.805H540.77L466.668 913.407L540.77 1053.01H540.818Z" fill="#E478F5"/>
            <path opacity="0.5" d="M171.541 868.319L116.797 765.272L171.541 662.225H280.935L335.727 765.272L280.982 868.319H171.589H171.541ZM167.498 876.074H285.12L343.955 765.272L285.12 654.521H167.451L108.711 765.272L167.451 876.074H167.498Z" fill="#E478F5"/>
            <path opacity="0.5" d="M536.011 797.536L504.097 737.404L536.011 677.375H599.935L631.897 737.404L599.983 797.536H536.059H536.011ZM533.681 802.086H602.313L636.653 737.404L602.313 672.722H533.633L499.293 737.404L533.633 802.086H533.681Z" fill="#E478F5"/>
            <path opacity="0.5" d="M688.973 971.677L658.58 914.388L688.973 857.1H749.853L780.245 914.388L749.853 971.677H688.973ZM686.69 975.968H752.278L784.954 914.388L752.278 852.808H686.832L654.157 914.388L686.832 975.968H686.69Z" fill="#E478F5"/>
            <path opacity="0.5" d="M357.034 837.193L287.736 706.743L357.034 576.241H495.631L564.882 706.743L495.631 837.193H357.034ZM351.85 846.966H500.815L575.298 706.743L500.815 566.469H351.85L277.367 706.743L351.85 846.966Z" fill="#E478F5"/>
            <path opacity="0.5" d="M667.712 788.85C667.712 787.49 668.083 786.161 668.778 785.03C669.473 783.899 670.461 783.017 671.617 782.497C672.773 781.976 674.045 781.84 675.272 782.106C676.499 782.371 677.626 783.026 678.51 783.988C679.395 784.949 679.998 786.175 680.242 787.509C680.486 788.843 680.36 790.225 679.882 791.482C679.403 792.738 678.592 793.812 677.552 794.568C676.512 795.324 675.289 795.727 674.037 795.727C672.36 795.727 670.751 795.002 669.565 793.713C668.378 792.423 667.712 790.674 667.712 788.85Z" fill="#E478F5"/>
            <path opacity="0.5" d="M402.408 527.847C402.408 525.065 403.167 522.346 404.589 520.033C406.01 517.72 408.031 515.918 410.395 514.853C412.759 513.789 415.36 513.51 417.869 514.053C420.379 514.596 422.684 515.935 424.493 517.902C426.303 519.869 427.535 522.375 428.034 525.103C428.533 527.831 428.277 530.659 427.298 533.228C426.319 535.798 424.66 537.995 422.533 539.54C420.405 541.085 417.904 541.91 415.345 541.91C411.914 541.91 408.624 540.428 406.198 537.791C403.771 535.154 402.408 531.576 402.408 527.847Z" fill="#E478F5"/>
            <path opacity="0.5" d="M142.815 696.248C142.815 695.425 143.115 694.636 143.651 694.054C144.186 693.472 144.912 693.146 145.668 693.146C146.425 693.146 147.151 693.472 147.686 694.054C148.222 694.636 148.522 695.425 148.522 696.248C148.522 697.071 148.222 697.86 147.686 698.441C147.151 699.023 146.425 699.35 145.668 699.35C144.912 699.35 144.186 699.023 143.651 698.441C143.115 697.86 142.815 697.071 142.815 696.248Z" fill="#E478F5"/>
            <path opacity="0.5" d="M318.889 613.676C318.889 613.196 319.065 612.735 319.377 612.396C319.689 612.057 320.113 611.866 320.554 611.866C320.775 611.859 320.994 611.901 321.199 611.989C321.404 612.078 321.59 612.211 321.746 612.38C321.902 612.55 322.024 612.752 322.106 612.975C322.187 613.198 322.225 613.436 322.219 613.676C322.219 614.156 322.043 614.616 321.731 614.955C321.419 615.295 320.996 615.485 320.554 615.485C320.113 615.485 319.689 615.295 319.377 614.955C319.065 614.616 318.889 614.156 318.889 613.676Z" fill="#E478F5"/>
            <path opacity="0.5" d="M1038.03 875.559C1038.02 874.102 1038.41 872.676 1039.15 871.461C1039.89 870.245 1040.95 869.296 1042.18 868.734C1043.42 868.172 1044.78 868.022 1046.09 868.304C1047.41 868.586 1048.62 869.286 1049.56 870.316C1050.51 871.346 1051.15 872.659 1051.41 874.088C1051.67 875.517 1051.54 876.997 1051.02 878.341C1050.5 879.684 1049.63 880.831 1048.51 881.633C1047.39 882.436 1046.08 882.859 1044.74 882.849C1042.96 882.849 1041.26 882.081 1040 880.714C1038.74 879.347 1038.03 877.492 1038.03 875.559Z" fill="#E478F5"/>
            <path opacity="0.5" d="M319.365 753.276C319.365 752.59 319.616 751.932 320.061 751.448C320.507 750.963 321.112 750.69 321.743 750.69C322.37 750.704 322.968 750.98 323.411 751.462C323.855 751.944 324.109 752.594 324.121 753.276C324.121 753.961 323.871 754.619 323.425 755.104C322.979 755.588 322.374 755.861 321.743 755.861C321.112 755.861 320.507 755.588 320.061 755.104C319.616 754.619 319.365 753.961 319.365 753.276Z" fill="#E478F5"/>
            <path opacity="0.5" d="M537.629 850.068C532.77 850.068 528.83 854.351 528.83 859.633C528.83 864.916 532.77 869.199 537.629 869.199C542.489 869.199 546.428 864.916 546.428 859.633C546.428 854.351 542.489 850.068 537.629 850.068Z" fill="#E478F5"/>
            <path opacity="0.5" d="M86.2137 538.446C86.2137 537.994 86.3792 537.56 86.6736 537.24C86.9679 536.92 87.3671 536.74 87.7834 536.74C88.1997 536.74 88.5989 536.92 88.8932 537.24C89.1876 537.56 89.3529 537.994 89.3529 538.446C89.3529 538.899 89.1876 539.333 88.8932 539.653C88.5989 539.973 88.1997 540.152 87.7834 540.152C87.3671 540.152 86.9679 539.973 86.6736 539.653C86.3792 539.333 86.2137 538.899 86.2137 538.446Z" fill="#E478F5"/>
        </g>
    </g>
    <defs>
        <filter id="filter0_f" x="-143" y="-458" width="2763" height="1067" filterUnits="userSpaceOnUse" color-interpolation-filters="sRGB">
            <feFlood flood-opacity="0" result="BackgroundImageFix"/>
            <feBlend mode="normal" in="SourceGraphic" in2="BackgroundImageFix" result="shape"/>
            <feGaussianBlur stdDeviation="50" result="effect1_foregroundBlur"/>
        </filter>
        <filter id="filter1_f" x="-434" y="352.305" width="2600" height="1050.69" filterUnits="userSpaceOnUse" color-interpolation-filters="sRGB">
            <feFlood flood-opacity="0" result="BackgroundImageFix"/>
            <feBlend mode="normal" in="SourceGraphic" in2="BackgroundImageFix" result="shape"/>
            <feGaussianBlur stdDeviation="50" result="effect1_foregroundBlur"/>
        </filter>
        <linearGradient id="paint0_linear" x1="1782.13" y1="55.8716" x2="1782.13" y2="132.807" gradientUnits="userSpaceOnUse">
            <stop stop-color="#0CCFAC"/>
            <stop offset="1" stop-color="#3CE1BA"/>
        </linearGradient>
        <linearGradient id="paint1_linear" x1="1966.13" y1="-0.303223" x2="1966.13" y2="185.923" gradientUnits="userSpaceOnUse">
            <stop stop-color="#0CCFAC"/>
            <stop offset="1" stop-color="#3CE1BA"/>
        </linearGradient>
        <linearGradient id="paint2_linear" x1="1303.41" y1="-142.844" x2="1303.41" y2="129.276" gradientUnits="userSpaceOnUse">
            <stop stop-color="#20EDC8"/>
            <stop offset="1" stop-color="#3CE1BA"/>
        </linearGradient>
        <linearGradient id="paint3_linear" x1="1031.16" y1="-140.472" x2="1031.16" y2="17.6143" gradientUnits="userSpaceOnUse">
            <stop stop-color="#0CCFAC"/>
            <stop offset="1" stop-color="#3CE1BA"/>
        </linearGradient>
        <linearGradient id="paint4_linear" x1="1931.29" y1="275.822" x2="1931.29" y2="509" gradientUnits="userSpaceOnUse">
            <stop stop-color="#0CCFAC"/>
            <stop offset="1" stop-color="#3CE1BA"/>
        </linearGradient>
        <linearGradient id="paint5_linear" x1="2017" y1="-133.78" x2="2017" y2="123.375" gradientUnits="userSpaceOnUse">
            <stop stop-color="#0CCFAC"/>
            <stop offset="1" stop-color="#3CE1BA"/>
        </linearGradient>
        <linearGradient id="paint6_linear" x1="1860.99" y1="-48.8354" x2="1860.99" y2="92.9683" gradientUnits="userSpaceOnUse">
            <stop stop-color="#0CCFAC"/>
            <stop offset="1" stop-color="#3CE1BA"/>
        </linearGradient>
        <linearGradient id="paint7_linear" x1="1506.68" y1="-103.217" x2="1506.68" y2="181.339" gradientUnits="userSpaceOnUse">
            <stop stop-color="#0CCFAC"/>
            <stop offset="1" stop-color="#3CE1BA"/>
        </linearGradient>
        <linearGradient id="paint8_linear" x1="1921.61" y1="77.1074" x2="1921.61" y2="302.908" gradientUnits="userSpaceOnUse">
            <stop stop-color="#0CCFAC"/>
            <stop offset="1" stop-color="#3CE1BA"/>
        </linearGradient>
        <linearGradient id="paint9_linear" x1="1556.77" y1="152.514" x2="1556.77" y2="284.359" gradientUnits="userSpaceOnUse">
            <stop stop-color="#0CCFAC"/>
            <stop offset="1" stop-color="#3CE1BA"/>
        </linearGradient>
        <linearGradient id="paint10_linear" x1="1394.89" y1="-24.7007" x2="1394.89" y2="100.82" gradientUnits="userSpaceOnUse">
            <stop stop-color="#0CCFAC"/>
            <stop offset="1" stop-color="#3CE1BA"/>
        </linearGradient>
        <linearGradient id="paint11_linear" x1="1708.03" y1="106.775" x2="1708.03" y2="392.648" gradientUnits="userSpaceOnUse">
            <stop stop-color="#0CCFAC"/>
            <stop offset="1" stop-color="#3CE1BA"/>
        </linearGradient>
        <linearGradient id="paint12_linear" x1="1544.3" y1="-193.326" x2="1544.3" y2="46.4914" gradientUnits="userSpaceOnUse">
            <stop stop-color="#0CCFAC"/>
            <stop offset="1" stop-color="#3CE1BA"/>
        </linearGradient>
        <linearGradient id="paint13_linear" x1="1443.5" y1="158.996" x2="1443.5" y2="173.013" gradientUnits="userSpaceOnUse">
            <stop stop-color="#0CCFAC"/>
            <stop offset="1" stop-color="#3CE1BA"/>
        </linearGradient>
        <linearGradient id="paint14_linear" x1="1719.76" y1="417.679" x2="1719.76" y2="446.345" gradientUnits="userSpaceOnUse">
            <stop stop-color="#0CCFAC"/>
            <stop offset="1" stop-color="#3CE1BA"/>
        </linearGradient>
        <linearGradient id="paint15_linear" x1="1820.99" y1="342.693" x2="1820.99" y2="346.382" gradientUnits="userSpaceOnUse">
            <stop stop-color="#0CCFAC"/>
            <stop offset="1" stop-color="#3CE1BA"/>
        </linearGradient>
        <linearGradient id="paint16_linear" x1="1047.57" y1="70.2039" x2="1047.57" y2="85.1694" gradientUnits="userSpaceOnUse">
            <stop stop-color="#0CCFAC"/>
            <stop offset="1" stop-color="#3CE1BA"/>
        </linearGradient>
        <linearGradient id="paint17_linear" x1="1819.72" y1="199.625" x2="1819.72" y2="204.895" gradientUnits="userSpaceOnUse">
            <stop stop-color="#0CCFAC"/>
            <stop offset="1" stop-color="#3CE1BA"/>
        </linearGradient>
        <linearGradient id="paint18_linear" x1="1589.17" y1="84.1152" x2="1589.17" y2="103.613" gradientUnits="userSpaceOnUse">
            <stop stop-color="#0CCFAC"/>
            <stop offset="1" stop-color="#3CE1BA"/>
        </linearGradient>
        <clipPath id="clip0">
            <rect width="1920" height="895" fill="white"/>
        </clipPath>
    </defs>
</svg>
